<svg width="30" height="30" viewBox="0 0 30 30" fill="none" xmlns="http://www.w3.org/2000/svg">
<g filter="url(#filter0_d_2209_242)">
<path d="M5.5 11C5.5 6.52166 5.5 4.28249 6.89124 2.89124C8.28249 1.5 10.5217 1.5 15 1.5C19.4783 1.5 21.7175 1.5 23.1088 2.89124C24.5 4.28249 24.5 6.52166 24.5 11C24.5 15.4783 24.5 17.7175 23.1088 19.1088C21.7175 20.5 19.4783 20.5 15 20.5C10.5217 20.5 8.28249 20.5 6.89124 19.1088C5.5 17.7175 5.5 15.4783 5.5 11Z" fill="white"/>
<path d="M5.5 11C5.5 6.52166 5.5 4.28249 6.89124 2.89124C8.28249 1.5 10.5217 1.5 15 1.5C19.4783 1.5 21.7175 1.5 23.1088 2.89124C24.5 4.28249 24.5 6.52166 24.5 11C24.5 15.4783 24.5 17.7175 23.1088 19.1088C21.7175 20.5 19.4783 20.5 15 20.5C10.5217 20.5 8.28249 20.5 6.89124 19.1088C5.5 17.7175 5.5 15.4783 5.5 11Z" stroke="#F3541C" stroke-width="1.5"/>
</g>
<defs>
<filter id="filter0_d_2209_242" x="0.75" y="0.75" width="28.5" height="28.5" filterUnits="userSpaceOnUse" color-interpolation-filters="sRGB">
<feFlood flood-opacity="0" result="BackgroundImageFix"/>
<feColorMatrix in="SourceAlpha" type="matrix" values="0 0 0 0 0 0 0 0 0 0 0 0 0 0 0 0 0 0 127 0" result="hardAlpha"/>
<feOffset dy="4"/>
<feGaussianBlur stdDeviation="2"/>
<feComposite in2="hardAlpha" operator="out"/>
<feColorMatrix type="matrix" values="0 0 0 0 0 0 0 0 0 0 0 0 0 0 0 0 0 0 0.25 0"/>
<feBlend mode="normal" in2="BackgroundImageFix" result="effect1_dropShadow_2209_242"/>
<feBlend mode="normal" in="SourceGraphic" in2="effect1_dropShadow_2209_242" result="shape"/>
</filter>
</defs>
</svg>
